<svg xmlns="http://www.w3.org/2000/svg" width="17.905" height="23.867" viewBox="0 0 17.905 23.867">
  <path id="award-solid" d="M8.052.28a1.538,1.538,0,0,1,1.7,0l.83.545a1.555,1.555,0,0,0,.937.252l.993-.061a1.539,1.539,0,0,1,1.468.848l.447.89a1.546,1.546,0,0,0,.685.685l.9.452a1.539,1.539,0,0,1,.848,1.468l-.061.993a1.547,1.547,0,0,0,.252.937l.55.83a1.538,1.538,0,0,1,0,1.7l-.55.834a1.555,1.555,0,0,0-.252.937l.061.993a1.539,1.539,0,0,1-.848,1.468l-.89.447a1.546,1.546,0,0,0-.685.685l-.452.9a1.539,1.539,0,0,1-1.468.848l-.993-.061a1.547,1.547,0,0,0-.937.252l-.83.55a1.538,1.538,0,0,1-1.7,0l-.834-.55a1.555,1.555,0,0,0-.937-.252l-.993.061a1.539,1.539,0,0,1-1.468-.848l-.447-.89a1.546,1.546,0,0,0-.685-.685l-.9-.452a1.539,1.539,0,0,1-.848-1.468L1,11.593a1.547,1.547,0,0,0-.252-.937L.207,9.822a1.538,1.538,0,0,1,0-1.7L.752,7.3A1.555,1.555,0,0,0,1,6.358L.944,5.366A1.539,1.539,0,0,1,1.792,3.9l.89-.447a1.577,1.577,0,0,0,.69-.695l.447-.89a1.539,1.539,0,0,1,1.468-.848l.993.061A1.547,1.547,0,0,0,7.218.826Zm4.577,8.693A3.729,3.729,0,1,0,8.9,12.7,3.729,3.729,0,0,0,12.629,8.973ZM.011,20.617,2.02,15.839a.036.036,0,0,1,.019.019l.447.89a3.04,3.04,0,0,0,2.89,1.669l.993-.061a.044.044,0,0,1,.033.009l.83.55a3.168,3.168,0,0,0,.75.359L6.229,23.437a.744.744,0,0,1-1.31.117l-1.5-2.3L.8,21.643a.761.761,0,0,1-.7-.28.742.742,0,0,1-.1-.746Zm11.56,2.815L9.818,19.275a3,3,0,0,0,.75-.359l.83-.55a.067.067,0,0,1,.033-.009l.993.061a3.04,3.04,0,0,0,2.89-1.669l.447-.89a.036.036,0,0,1,.019-.019l2.014,4.778a.755.755,0,0,1-.1.746.736.736,0,0,1-.7.28l-2.615-.387-1.5,2.293a.744.744,0,0,1-1.31-.117Z" transform="translate(0.052 -0.025)" fill="#fff"/>
</svg>
