<svg xmlns="http://www.w3.org/2000/svg" xmlns:xlink="http://www.w3.org/1999/xlink" width="15" height="20" viewBox="0 0 15 20">
  <defs>
    <clipPath id="clip-path">
      <rect id="Rectangle_18" data-name="Rectangle 18" width="15" height="20" transform="translate(0 0)" fill="#5790fc"/>
    </clipPath>
  </defs>
  <g id="Group_34" data-name="Group 34" transform="translate(-0.158 0.297)">
    <g id="Group_33" data-name="Group 33" transform="translate(0.158 -0.296)" clip-path="url(#clip-path)">
      <path id="Path_18" data-name="Path 18" d="M7.563,20.167A7.565,7.565,0,0,1,0,12.6C0,9.012,5.128,2.273,6.562.461A1.225,1.225,0,0,1,7.527,0H7.6a1.225,1.225,0,0,1,.965.461C10,2.273,15.125,9.012,15.125,12.6a7.565,7.565,0,0,1-7.563,7.563M3.781,13.235a.63.63,0,1,0-1.26,0,4.409,4.409,0,0,0,4.412,4.412.63.63,0,1,0,0-1.26,3.15,3.15,0,0,1-3.151-3.151" transform="translate(0.045 0.06)" fill="#5790fc"/>
    </g>
  </g>
</svg>
