<svg id="Group_28" data-name="Group 28" xmlns="http://www.w3.org/2000/svg" xmlns:xlink="http://www.w3.org/1999/xlink" width="21.936" height="21.936" viewBox="0 0 21.936 21.936">
  <defs>
    <clipPath id="clip-path">
      <rect id="Rectangle_17" data-name="Rectangle 17" width="21.936" height="21.936" fill="#ff9300"/>
    </clipPath>
  </defs>
  <g id="Group_27" data-name="Group 27" clip-path="url(#clip-path)">
    <path id="Path_17" data-name="Path 17" d="M15.487.053a.693.693,0,0,1,.411.51l.852,4.622,4.622.848a.693.693,0,0,1,.51.411.68.68,0,0,1-.069.651l-2.669,3.872,2.669,3.868a.68.68,0,0,1,.069.651.693.693,0,0,1-.51.411l-4.622.852L15.9,21.373a.693.693,0,0,1-.411.51.68.68,0,0,1-.651-.069l-3.868-2.669L7.1,21.814a.68.68,0,0,1-.651.069.693.693,0,0,1-.411-.51l-.852-4.622L.563,15.9a.693.693,0,0,1-.51-.411.68.68,0,0,1,.069-.651L2.79,10.968.122,7.1a.68.68,0,0,1-.069-.651.693.693,0,0,1,.51-.411l4.622-.852L6.037.563a.693.693,0,0,1,.411-.51A.68.68,0,0,1,7.1.122L10.968,2.79,14.836.122a.68.68,0,0,1,.651-.069M6.856,10.968a4.112,4.112,0,1,1,4.112,4.112,4.112,4.112,0,0,1-4.112-4.112m9.6,0a5.483,5.483,0,1,0-5.483,5.483,5.483,5.483,0,0,0,5.483-5.483" transform="translate(0 0)" fill="#ff9300"/>
  </g>
</svg>
